<svg xmlns="http://www.w3.org/2000/svg" width="168.63388311862946" height="92.72131168842316"><rect id="backgroundrect" width="100%" height="100%" x="0" y="0" fill="none" stroke="none" style="" class="selected"></rect><g class="currentLayer" style=""><title>Layer 1</title><g class=""><path d="M35.722225482520116,0 a5.190940954728205,5.190940954728205 0 0 0 -5.183296164931818,5.183296164931818 V23.967014952575482 a5.190940954728205,5.190940954728205 0 0 0 5.183296164931818,5.183296164931818 h18.776068894272953 a5.183296164931818,5.183296164931818 0 0 0 0,-10.366592329863636 H40.89786810867099 V5.1832950713087484 A5.183296164931818,5.183296164931818 0 0 0 35.722225482520116,0 z" fill="#0f596e" id="svg_1" class=""></path><path d="M5.172894501648443,31.206811337560794 a5.183296164931818,5.183296164931818 0 0 0 0,10.366592329863636 h13.600418977301615 v13.569838359951973 a5.183296164931818,5.183296164931818 0 1 0 10.358947175526225,0 V36.39010640886954 a5.183296164931818,5.183296164931818 0 0 0 -5.175651010594407,-5.183296164931818 z" fill="#eb6012" id="svg_2" class=""></path><path d="M51.28741558676211,61.30509133600208 l-2.1405941837073357,2.6528078590011006 v9.250425314473318 H40.98962745868903 V41.55046747533015 h8.157193033013186 v12.996464908123016 l9.724413947162077,-12.996464908123016 h10.060792718105631 l-12.285481594548855,14.793035348819899 l12.942950285925235,16.818954586982727 H59.582199525387296 z" fill="#0f596e" id="svg_3" class=""></path><path d="M69.63536604528872,61.73320831358433 c0,-6.452362257119091 4.701662377905649,-12.002617445803082 12.476606078491841,-12.002617445803082 s12.522475546352211,5.550255188683991 12.522475546352211,12.002617445803082 s-4.6481473911668445,12.040842488408089 -12.522475546352211,12.040842488408089 S69.63536604528872,68.17792031279168 69.63536604528872,61.73320831358433 zm17.507002437544656,0 c0,-3.0579917430877686 -1.8042150482227584,-5.550255188683991 -5.030396359052816,-5.550255188683991 s-4.9310115399126175,2.507553207459509 -4.9310115399126175,5.550255188683991 s1.7507002437544656,5.596125021085385 4.9310115399126175,5.596125021085385 S87.1423641083411,64.81413406152024 87.1423641083411,61.73320831358433 z" fill="#0f596e" id="svg_4" class=""></path><path d="M114.36612440247973,70.55552102496767 a8.776435952702514,8.776435952702514 0 0 1 -6.788741757144692,3.2185363387631583 c-5.6419948534867785,0 -10.144887957653054,-4.265898423280873 -10.144887957653054,-12.040842488408089 c0,-7.499725070718853 4.411153074822465,-12.002617445803082 10.144887957653054,-12.002617445803082 a8.516507266968972,8.516507266968972 0 0 1 6.788741757144692,3.2720513255019625 V41.55046747533015 h7.25508523549604 v31.634925398814858 h-7.25508523549604 zm0,-12.338996216746636 a5.978373988971356,5.978373988971356 0 0 0 -4.411153074822465,-2.0335645747707503 c-2.897447147412379,0 -5.030396359052816,2.1329492116404367 -5.030396359052816,5.550255188683991 s2.1329492116404367,5.596125021085385 5.030396359052816,5.596125021085385 a6.031888611169137,6.031888611169137 0 0 0 4.411153074822465,-2.087079379239043 z" fill="#0f596e" id="svg_5" class=""></path><path d="M140.98594812540887,70.93011754769577 c-1.421966171472043,1.7124753834199709 -4.174158758478086,2.843932342944086 -7.117476102832882,2.843932342944086 c-3.509045641846342,0 -7.874328884267413,-2.369943527984816 -7.874328884267413,-7.537949384241813 c0,-5.550255188683991 4.3652832424210715,-7.209215767635669 7.874328884267413,-7.209215767635669 c3.0579917430877686,0 5.741379672626977,0.9479774476480287 7.117476102832882,2.6528078590011006 v-2.88980217534548 c0,-1.995339532165744 -1.7124753834199709,-3.3179211579033563 -4.6481473911668445,-3.3179211579033563 a10.198402579850836,10.198402579850836 0 0 0 -6.498232454061508,2.4158135426567213 l-2.606938026599707,-4.586987614631653 a16.123261582083387,16.123261582083387 0 0 1 10.38188190945641,-3.5549154742477356 c5.504384991741574,0 10.70297110080719,2.041209546837649 10.70297110080719,9.173975229263306 v14.326691141386505 H140.98594812540887 zm0,-5.6419948534867785 c-0.7644979357719421,-1.047362175652971 -2.469328347125014,-1.6130905642797728 -4.082419093675298,-1.6130905642797728 c-1.9418247276974512,0 -3.646655139050523,0.8562376917099854 -3.646655139050523,2.6528078590011006 s1.704830411353072,2.6604528310679996 3.646655139050523,2.6604528310679996 c1.6130905642797728,0 3.3255659476997437,-0.5733734518289566 4.082419093675298,-1.6589605789516781 z" fill="#0f596e" id="svg_6" class=""></path><path d="M154.05886749323417,50.29632572701121 h7.300955432438457 v2.897447147412379 A9.991987787233029,9.991987787233029 0 0 1 168.50787381319878,49.730604720340125 v7.063960751553054 a6.054823709640345,6.054823709640345 0 0 0 -1.8042150482227584,-0.23699436191200718 c-1.8959548952960574,0 -4.411153074822465,0.8103677681733359 -5.351485550403595,2.1329492116404367 v14.5254607796669 H154.05886749323417 z" fill="#0f596e" id="svg_7" class=""></path></g></g></svg>